# xmcd
#
# Track frame offsets:
# 150
# 16449
# 40818
# 57019
# 75488
# 90995
# 109621
# 132725
# 152069
# 170736
# 190165
#
# Disc length: 2816 seconds
#
# Revision: 0
# Processed by: cddbd v1.4PL0 Copyright (c) Steve Scherf et al.
# Submitted via: Audion 3.0.2 (http://www.panic.com/audion/)
#
DISCID=840afe0b
DTITLE=half past heartache - Mothers Pride
DYEAR=1900
DGENRE=
TTITLE0=pretend
TTITLE1=goodbye_suicide
TTITLE2=right place+time
TTITLE3=silence
TTITLE4=luck
TTITLE5=food for songs
TTITLE6=shy
TTITLE7=shine
TTITLE8=dont mind
TTITLE9=fake
TTITLE10=seasick for a while
EXTD=
EXTT0=
EXTT1=
EXTT2=
EXTT3=
EXTT4=
EXTT5=
EXTT6=
EXTT7=
EXTT8=
EXTT9=
EXTT10=
PLAYORDER=
